# Blender 4.5.1 LTS
# www.blender.org
o spaceship.004
v 1.250000 0.500000 -1.500000
v 1.250000 -0.500000 -1.500000
v 1.249773 0.000000 1.499815
v -1.250000 0.500000 -1.500000
v -1.250000 -0.500000 -1.500000
v -1.249773 0.000000 1.499815
v 1.250000 0.000000 -1.000000
v 3.000000 0.000000 -2.500000
v 3.000000 0.000000 1.500000
v 4.250000 0.000000 -2.000000
v 4.250000 0.000000 2.000000
v -0.726819 -0.739697 -2.000644
v -0.994205 -0.059924 -4.000161
v 0.726819 -0.739697 -2.000644
v 1.011590 0.744849 -1.999678
v 0.994205 -0.059924 -4.000161
v -1.250000 0.000000 1.000000
v -1.250000 0.000000 -1.000000
v -4.250000 0.000000 2.000000
v -4.250000 0.000000 -2.000000
v -3.000000 0.000000 1.500000
v -3.000000 0.000000 -2.500000
v 3.000000 0.000000 -1.000000
v 1.250000 0.000000 1.000000
v 3.000000 0.000000 1.000000
v -3.000000 0.000000 1.000000
v -3.000000 0.000000 -1.000000
v -0.000000 1.001122 1.500370
v 0.000000 1.000000 -1.500000
v 0.000000 -1.000000 -1.500000
v -0.000000 -1.001122 1.500370
v -0.752649 -0.128267 4.025106
v -2.340776 -0.122951 3.262672
v -1.011590 0.744849 -1.999678
v 0.752648 -0.128267 4.025106
v -0.000000 0.004171 2.545703
v 2.340776 -0.122951 3.262672
v -0.750000 0.000000 -1.500000
v 0.750000 0.000000 -1.500000
v -0.750000 0.000000 -2.000000
v 0.750000 0.000000 -2.000000
vn -1.0000 -0.0000 0.0001
vn 1.0000 -0.0000 0.0001
vn 0.6200 -0.7739 0.1290
vn -0.0317 0.9968 0.0731
vn -0.5017 0.6260 0.5970
vn 0.5017 0.6260 0.5970
vn -0.5002 -0.6241 0.6002
vn 0.5002 -0.6241 0.6002
vn -0.0000 1.0000 -0.0000
vn 0.0317 0.9968 0.0731
vn 0.9799 -0.1880 0.0671
vn -0.3714 -0.9285 -0.0003
vn -0.0000 -0.0007 1.0000
vn -0.0000 -0.9468 -0.3219
vn -0.0000 0.9277 -0.3732
vn -0.0000 0.9960 0.0892
vn -0.6200 0.7739 0.1290
vn 0.3714 0.9285 -0.0003
vn -0.0000 -0.0000 -1.0000
vn -0.9799 -0.1880 0.0671
vn 0.3714 -0.9285 -0.0003
vn -0.6200 -0.7739 0.1290
vn -0.3714 0.9285 -0.0003
vn 0.6200 0.7739 0.1290
vt 0.906250 0.640625
vt 0.953125 0.921875
vt 0.859375 0.921875
vt 0.453125 0.921875
vt 0.359375 0.921875
vt 0.406250 0.640625
vt 0.156250 0.281250
vt 0.281250 0.000000
vt 0.281250 0.281250
vt 0.593750 0.015625
vt 0.656250 0.156250
vt 0.437500 0.078125
vt 0.156250 0.500000
vt 0.031250 0.500000
vt 0.156250 0.390625
vt 0.281250 0.500000
vt 0.031250 0.281250
vt 0.968750 0.484375
vt 0.843750 0.140625
vt 0.968750 0.093750
vt 0.734375 0.015625
vt 0.890625 0.078125
vt 0.718750 0.718750
vt 0.734375 0.562500
vt 0.796875 0.718750
vt 0.031250 0.000000
vt 0.156250 0.000000
vt 0.453125 0.187500
vt 0.625000 0.390625
vt 0.453125 0.390625
vt 0.453125 0.140625
vt 0.343750 0.484375
vt 0.343750 0.093750
vt 0.578125 0.843750
vt 0.593750 0.718750
vt 0.578125 0.562500
vt 0.734375 1.000000
vt 0.734375 0.843750
vt 0.031250 0.781250
vt 0.281250 0.781250
vt 0.156250 0.781250
vt 0.843750 0.187500
vt 0.687500 0.390625
vt 0.687500 0.187500
vt 0.578125 0.437500
vt 0.734375 0.500000
vt 0.578125 0.500000
vt 0.156250 1.000000
vt 0.031250 0.859375
vt 0.281250 0.859375
vt 0.515625 0.718750
vt 0.843750 0.531250
vt 0.625000 0.187500
vt 0.453125 0.531250
vt 0.578125 1.000000
vt 0.843750 0.390625
vt 0.734375 0.437500
vt 0.281250 0.953125
vt 0.031250 0.953125
vt 0.156250 0.812500
s 0
f 6/1/1 4/2/1 5/3/1
f 2/4/2 1/5/2 3/6/2
f 31/7/3 2/8/3 3/9/3
f 32/10/4 36/11/4 33/12/4
f 28/13/5 6/14/5 36/15/5
f 3/16/6 28/13/6 36/15/6
f 6/17/7 31/7/7 36/15/7
f 31/7/8 3/9/8 36/15/8
f 10/18/9 9/19/9 11/20/9
f 35/21/10 37/22/10 36/11/10
f 14/23/11 16/24/11 15/25/11
f 31/7/12 5/26/12 30/27/12
f 26/28/9 18/29/9 27/30/9
f 21/31/9 20/32/9 19/33/9
f 14/23/13 34/34/13 12/35/13
f 13/36/14 14/23/14 12/35/14
f 16/37/15 34/34/15 15/38/15
f 36/11/16 32/10/16 35/21/16
f 28/13/17 4/39/17 6/14/17
f 28/13/18 1/40/18 29/41/18
f 25/42/9 7/43/9 24/44/9
f 38/45/9 41/46/9 40/47/9
f 29/48/19 2/49/19 5/50/19
f 12/35/20 34/51/20 13/36/20
f 31/7/21 30/27/21 2/8/21
f 10/18/9 8/52/9 9/19/9
f 31/7/22 6/17/22 5/26/22
f 26/28/9 17/53/9 18/29/9
f 21/31/9 22/54/9 20/32/9
f 14/23/13 15/38/13 34/34/13
f 13/36/14 16/24/14 14/23/14
f 16/37/15 13/55/15 34/34/15
f 28/13/23 29/41/23 4/39/23
f 28/13/24 3/16/24 1/40/24
f 25/42/9 23/56/9 7/43/9
f 38/45/9 39/57/9 41/46/9
f 5/50/19 4/58/19 29/48/19
f 29/48/19 1/59/19 2/49/19
f 2/49/19 30/60/19 5/50/19
